<svg width="21" height="22" viewBox="0 0 21 22" fill="none" xmlns="http://www.w3.org/2000/svg">
<path d="M21 20.4773L14.1188 13.1686C15.0563 11.7982 15.6141 10.1134 15.6141 8.29605C15.6141 3.72316 12.1125 4.85439e-06 7.80938 4.85439e-06C3.50156 -0.00490696 0 3.71824 0 8.29114C0 12.864 3.50156 16.5872 7.80469 16.5872C9.67031 16.5872 11.3812 15.8897 12.7266 14.7256L19.5703 22L21 20.4773ZM7.80469 14.6716C4.49531 14.6716 1.8 11.808 1.8 8.29114C1.8 4.77428 4.49531 1.9107 7.80469 1.9107C11.1141 1.9107 13.8094 4.77428 13.8094 8.29114C13.8094 11.808 11.1187 14.6716 7.80469 14.6716Z" fill="#D3D3D3"/>
</svg>
