<svg width="33" height="27" viewBox="0 0 33 27" fill="none" xmlns="http://www.w3.org/2000/svg">
<path d="M32.5433 14.6944L21.5427 26.5049C20.5605 27.5594 18.8581 26.8213 18.8581 25.3098V18.5609H9.95287C9.082 18.5609 8.38137 17.8087 8.38137 16.8737V10.1248C8.38137 9.18981 9.082 8.43759 9.95287 8.43759H18.8581V1.68871C18.8581 0.184277 20.554 -0.560911 21.5427 0.493601L32.5433 12.3041C33.1522 12.965 33.1522 14.0335 32.5433 14.6944ZM12.5721 26.1534V23.3414C12.5721 22.8774 12.2185 22.4978 11.7863 22.4978H6.28603C5.12704 22.4978 4.19068 21.4925 4.19068 20.2481V6.75037C4.19068 5.50605 5.12704 4.50075 6.28603 4.50075H11.7863C12.2185 4.50075 12.5721 4.12112 12.5721 3.65714V0.845105C12.5721 0.38112 12.2185 0.0014952 11.7863 0.0014952H6.28603C2.81562 0.0014952 0 3.02443 0 6.75037V20.2481C0 23.9741 2.81562 26.997 6.28603 26.997H11.7863C12.2185 26.997 12.5721 26.6174 12.5721 26.1534Z" fill="#7D3C98"/>
</svg>
